<?xml version="1.0" encoding="UTF-8"?>
<svg id="Capa_2" xmlns="http://www.w3.org/2000/svg" viewBox="0 0 2087.02 659.51">
  <defs>
    <style>
      .cls-1 {
        fill: #fff;
      }
    </style>
  </defs>
  <g id="Capa_1-2" data-name="Capa_1">
    <g>
      <path class="cls-1" d="M750.93,540.17h64.06v-111.88c6.03,7.89,30.17,31.1,71.95,31.1,69.64,0,115.13-52.46,115.13-127.67s-49.21-127.2-118.84-127.2c-41.31,0-65.46,23.21-71.95,31.57v-25.53h-60.35v329.6ZM813.13,331.27c0-38.53,23.22-70.09,62.21-70.09,36.21,0,62.21,26.92,62.21,70.09s-25.07,71.5-62.21,71.5-62.21-26-62.21-71.5M1020.64,453.36h64.06V117.73h-64.06v335.64ZM1102.81,378.16c0,51.07,41.78,81.24,90.98,81.24,27.86,0,46.43-8.36,58.96-21.82l4.18,15.79h56.63v-153.66c0-54.32-23.21-95.17-101.2-95.17-37.14,0-73.81,13.92-95.63,28.78l24.14,43.64c18.1-9.29,40.39-17.18,64.53-17.18,28.32,0,44.1,14.39,44.1,35.75v15.78c-8.82-6.03-27.85-13.46-52.46-13.46-56.63,0-94.24,32.5-94.24,80.31M1166.87,376.3c0-19.96,17.17-33.89,41.78-33.89s42.24,12.54,42.24,33.89-17.64,33.42-41.78,33.42-42.24-13.46-42.24-33.42M1430.16,540.09l125.26-329.51h-66.85l-54.78,158.3-54.31-158.3h-68.71l93.31,236.75-35.19,92.76h61.28ZM1537.78,332.66c0,73.35,54.78,126.73,130.45,126.73s130.91-53.39,130.91-126.73-56.64-128.13-130.91-128.13-130.45,54.32-130.45,128.13M1601.84,332.66c0-41.78,27.85-71.49,66.38-71.49s66.85,30.17,66.85,71.49-28.32,70.1-66.85,70.1-66.38-28.78-66.38-70.1"/>
      <path class="cls-1" d="M2030.2,210.57c0-31.34,25.49-56.83,56.82-56.83v-68.22c-68.95,0-125.05,56.1-125.05,125.06h-62.43c0-31.34,25.49-56.83,56.83-56.83v-68.22c-68.95,0-125.05,56.1-125.05,125.06h-41.46v51.99h43.57v190.79h64.06v-190.79h66.59v190.79h64.06v-190.79h58.87v-51.99h-56.83Z"/>
      <g>
        <path class="cls-1" d="M0,329.75c0,181.83,147.93,329.76,329.76,329.76v-118.96c-116.23,0-210.79-94.56-210.79-210.8s94.56-210.79,210.79-210.79c83.42,0,151.28,67.87,151.28,151.28s-67.86,151.28-151.28,151.28v118.96c149.01,0,270.24-121.24,270.24-270.24S478.77,0,329.76,0C147.93,0,0,147.93,0,329.75"/>
        <path class="cls-1" d="M237.84,329.6c0,50.77,41.15,91.92,91.92,91.92v-183.84c-50.77,0-91.92,41.15-91.92,91.92"/>
      </g>
    </g>
  </g>
</svg>