<svg width="125" height="40" viewBox="0 0 125 40" fill="none" xmlns="http://www.w3.org/2000/svg">
<g id="Logo Playoff">
<path id="Path" d="M0 20.0022C0.0134028 31.0411 8.91597 39.9865 19.902 40V32.7875C15.3561 32.7875 11.1556 30.3506 8.88267 26.3948C6.60975 22.4391 6.60975 17.5654 8.88267 13.6096C11.1556 9.65383 15.3561 7.21698 19.902 7.21698C23.1983 7.16543 26.2664 8.90294 27.9295 11.7631C29.5927 14.6232 29.5927 18.162 27.9295 21.0222C26.2664 23.8823 23.1983 25.6198 19.902 25.5683V32.783C28.9114 32.783 36.215 25.4443 36.215 16.3915C36.215 7.33873 28.9114 0 19.902 0C8.91648 0.0146885 0.0146181 8.9594 0 19.9978" fill="#1469E6"/>
<path id="Path_2" d="M14.0186 20.5891C14.0186 23.5124 16.6337 25.8822 19.8597 25.8822V15.2939C16.6333 15.2951 14.0186 17.6655 14.0186 20.5891Z" fill="#1469E6"/>
<path id="Subtract" fill-rule="evenodd" clip-rule="evenodd" d="M48.2466 34.1178H44.3926V13.916H48.0239V15.4871C48.4142 14.9754 49.8671 13.5547 52.3542 13.5547C56.5455 13.5547 59.5066 16.7956 59.5066 21.3472C59.5066 25.955 56.766 29.1689 52.5768 29.1689C50.0634 29.1689 48.6104 27.746 48.2466 27.2634V34.1178ZM51.8889 17.0313C49.5364 17.0313 48.1407 18.9637 48.1407 21.3248C48.1407 24.1123 49.7657 25.7058 51.8889 25.7058C54.129 25.7058 55.6371 23.9126 55.6371 21.3248C55.6371 18.6809 54.0673 17.0313 51.8889 17.0313Z" fill="#1469E6"/>
<path id="Path_3" d="M60.6284 28.8052H64.4847V8.23535H60.624L60.6284 28.8052Z" fill="#1469E6"/>
<path id="Subtract_2" fill-rule="evenodd" clip-rule="evenodd" d="M71.051 29.1756C68.0899 29.1756 65.5742 27.3262 65.5742 24.1975L65.5654 24.184C65.5654 21.2551 67.8298 19.2643 71.2384 19.2643C72.7178 19.2643 73.8643 19.7199 74.3957 20.088V19.1207C74.3957 17.8122 73.4543 16.9324 71.7499 16.9324C70.3918 16.966 69.0606 17.3259 67.865 17.9828L66.4121 15.3097C68.1307 14.1845 70.1256 13.574 72.1688 13.5479C76.8629 13.5479 78.2585 16.0571 78.2585 19.3833V28.7963H74.8499L74.5985 27.8289C73.8445 28.6638 72.7267 29.1756 71.051 29.1756ZM71.9351 21.9935C70.4557 21.9935 69.4217 22.8464 69.4217 24.0696C69.4217 25.2928 70.5108 26.1187 71.9638 26.1187C73.4168 26.1187 74.4795 25.3219 74.4795 24.0696C74.4795 22.7611 73.4146 21.9935 71.9351 21.9935Z" fill="#1469E6"/>
<path id="Path_4" d="M85.268 34.1043L92.8085 13.916H88.7891L85.4819 23.6163L82.2231 13.9227H78.0869L83.7026 28.4283L81.586 34.1111L85.268 34.1043Z" fill="#1469E6"/>
<path id="Subtract_3" fill-rule="evenodd" clip-rule="evenodd" d="M99.5965 29.162C95.0523 29.162 91.7451 25.8852 91.7451 21.3964C91.7451 16.8672 95.1273 13.541 99.5965 13.541C104.066 13.541 107.476 16.9031 107.476 21.3964C107.476 25.8897 104.141 29.162 99.5965 29.162ZM99.5965 17.0176C97.277 17.0176 95.6013 18.8378 95.6013 21.3964C95.6013 23.9281 97.277 25.6922 99.5965 25.6922C101.916 25.6922 103.62 23.9281 103.62 21.3964C103.62 18.8647 101.916 17.0176 99.5965 17.0176Z" fill="#1469E6"/>
<path id="Path_5" d="M121.649 13.4763C121.652 11.5698 123.151 10.0249 125 10.0225V5.88281C120.93 5.88772 117.632 9.28756 117.627 13.483H113.955C113.957 11.5757 115.457 10.0304 117.308 10.0292V5.88281C113.235 5.88035 109.93 9.27828 109.922 13.4763H107.477V16.6384H110.047V28.2358H113.823V16.6384H117.75V28.2358H121.529V16.6384H125V13.4763H121.649Z" fill="#1469E6"/>
</g>
</svg>
